<svg xmlns="http://www.w3.org/2000/svg" viewBox="0 0 512 512">
  <defs>
    <linearGradient id="bg2" x1="0%" y1="0%" x2="100%" y2="100%">
      <stop offset="0%" style="stop-color:#1a3a6a"/>
      <stop offset="100%" style="stop-color:#0a1628"/>
    </linearGradient>
    <linearGradient id="acc2" x1="0%" y1="0%" x2="100%" y2="100%">
      <stop offset="0%" style="stop-color:#60a5fa"/>
      <stop offset="100%" style="stop-color:#3b82f6"/>
    </linearGradient>
  </defs>
  <!-- Full bleed background for maskable -->
  <rect width="512" height="512" fill="url(#bg2)"/>
  <!-- Content inside safe zone (80px padding each side = 352x352 centered) -->
  <rect x="96" y="136" width="320" height="268" rx="20" fill="rgba(255,255,255,0.07)" stroke="rgba(100,160,255,0.3)" stroke-width="2"/>
  <rect x="96" y="136" width="320" height="58" rx="20" fill="url(#acc2)" opacity="0.9"/>
  <rect x="96" y="175" width="320" height="19" fill="url(#acc2)" opacity="0.9"/>
  <circle cx="176" cy="242" r="11" fill="rgba(255,255,255,0.15)"/>
  <circle cx="230" cy="242" r="11" fill="rgba(255,255,255,0.15)"/>
  <circle cx="284" cy="242" r="11" fill="rgba(255,255,255,0.15)"/>
  <circle cx="338" cy="242" r="11" fill="rgba(255,255,255,0.15)"/>
  <circle cx="176" cy="288" r="11" fill="rgba(255,255,255,0.15)"/>
  <circle cx="230" cy="288" r="19" fill="url(#acc2)"/>
  <circle cx="284" cy="288" r="11" fill="rgba(255,255,255,0.15)"/>
  <circle cx="338" cy="288" r="11" fill="rgba(255,255,255,0.15)"/>
  <circle cx="176" cy="334" r="11" fill="rgba(255,255,255,0.15)"/>
  <circle cx="230" cy="334" r="11" fill="rgba(255,255,255,0.15)"/>
  <circle cx="284" cy="334" r="11" fill="rgba(96,165,250,0.6)"/>
  <circle cx="338" cy="334" r="11" fill="rgba(255,255,255,0.15)"/>
  <rect x="140" y="152" width="64" height="7" rx="3.5" fill="rgba(255,255,255,0.8)"/>
  <rect x="153" y="112" width="16" height="36" rx="8" fill="rgba(100,160,255,0.8)"/>
  <rect x="343" y="112" width="16" height="36" rx="8" fill="rgba(100,160,255,0.8)"/>
</svg>
